<?xml version="1.0" standalone="no"?>
<!DOCTYPE svg PUBLIC "-//W3C//DTD SVG 20010904//EN"
 "http://www.w3.org/TR/2001/REC-SVG-20010904/DTD/svg10.dtd">
<svg version="1.0" xmlns="http://www.w3.org/2000/svg"
 width="512.000000pt" height="512.000000pt" viewBox="0 0 512.000000 512.000000"
 preserveAspectRatio="xMidYMid meet">

<g transform="translate(0.000000,512.000000) scale(0.100000,-0.100000)"
fill="#000000" stroke="none">
<path d="M2232 4240 c-18 -11 -37 -32 -42 -46 -6 -14 -10 -96 -10 -181 l0
-157 -69 71 c-420 434 -1108 412 -1495 -47 -297 -351 -312 -880 -37 -1244 l50
-66 -50 -66 c-292 -387 -256 -947 85 -1297 401 -411 1045 -409 1446 5 l69 70
3 -171 3 -171 28 -27 c23 -24 36 -28 82 -28 46 0 59 4 82 28 l28 27 3 1614 c1
1041 -1 1623 -8 1640 -12 33 -65 66 -105 66 -16 0 -45 -9 -63 -20z m-627 -240
c260 -81 448 -264 537 -520 31 -91 33 -101 32 -245 0 -144 -1 -154 -33 -248
-22 -64 -54 -128 -93 -187 l-59 -90 -42 29 c-153 105 -371 171 -562 171 -191
0 -409 -66 -561 -171 l-42 -28 -40 57 c-53 77 -95 162 -124 252 -19 64 -23 96
-23 215 0 154 16 228 77 350 115 228 329 390 576 435 83 16 279 4 357 -20z
m23 -1338 c50 -18 115 -45 143 -61 l52 -29 -49 -31 c-27 -16 -92 -45 -144 -63
-91 -31 -101 -33 -245 -32 -135 0 -158 3 -230 27 -89 30 -187 78 -192 94 -5
14 65 54 142 83 109 40 172 50 305 46 108 -3 137 -7 218 -34z m552 -94 l0 -42
-22 21 c-21 22 -21 23 -3 43 10 11 20 20 22 20 1 0 3 -19 3 -42z m-1245 -230
c232 -117 503 -139 750 -61 87 28 196 79 261 124 l41 28 34 -47 c57 -77 87
-135 121 -234 31 -89 33 -100 32 -243 0 -144 -1 -154 -33 -248 -83 -241 -267
-424 -511 -509 -91 -31 -101 -33 -245 -32 -143 0 -154 1 -245 33 -257 88 -439
277 -522 541 -19 64 -23 96 -23 215 0 119 4 151 23 215 29 90 71 175 124 252
l40 57 42 -28 c22 -16 73 -44 111 -63z"/>
<path d="M3810 4036 c-29 -16 -872 -1466 -960 -1651 -94 -198 -130 -337 -130
-500 0 -576 490 -1037 1065 -1002 650 40 1093 682 898 1301 -166 527 -732 826
-1252 661 -41 -14 -76 -23 -76 -22 -1 1 135 238 303 527 168 289 309 541 315
561 26 92 -78 171 -163 125z m135 -1386 c271 -85 461 -276 547 -550 19 -64 23
-96 23 -215 0 -119 -4 -151 -23 -215 -87 -276 -276 -465 -552 -552 -65 -20
-95 -23 -220 -22 -137 0 -150 2 -243 33 -241 82 -424 267 -509 511 -31 91 -33
101 -32 245 0 144 1 154 33 247 37 108 113 232 189 311 101 104 283 201 425
227 88 15 282 5 362 -20z"/>
</g>
</svg>
